<svg width="416" height="52" viewBox="0 0 416 52" fill="none" xmlns="http://www.w3.org/2000/svg">
<path d="M85.0288 21.4422C85.0288 22.9571 84.6636 24.3773 83.9332 25.7027C83.2299 27.0282 82.1073 28.0967 80.5654 28.9083C79.0505 29.7198 77.1299 30.1256 74.8035 30.1256H70.0561V41H64.3754V12.6778H74.8035C76.9947 12.6778 78.8612 13.0565 80.4031 13.8139C81.945 14.5713 83.0946 15.6128 83.8521 16.9383C84.6365 18.2638 85.0288 19.7651 85.0288 21.4422ZM74.5601 25.5404C76.129 25.5404 77.2922 25.1888 78.0497 24.4855C78.8071 23.7551 79.1858 22.7407 79.1858 21.4422C79.1858 18.683 77.6439 17.3035 74.5601 17.3035H70.0561V25.5404H74.5601ZM94.7427 22.0103C95.473 20.8201 96.4198 19.8868 97.583 19.2105C98.7732 18.5343 100.126 18.1961 101.641 18.1961V24.1608H100.139C98.354 24.1608 97.0014 24.5801 96.0817 25.4187C95.189 26.2573 94.7427 27.718 94.7427 29.8009V41H89.062V18.5207H94.7427V22.0103ZM115.449 41.3652C113.285 41.3652 111.337 40.8918 109.606 39.945C107.874 38.9712 106.508 37.6051 105.507 35.8468C104.534 34.0885 104.047 32.0597 104.047 29.7604C104.047 27.4611 104.547 25.4322 105.548 23.6739C106.576 21.9156 107.969 20.5631 109.727 19.6163C111.486 18.6425 113.447 18.1556 115.611 18.1556C117.775 18.1556 119.736 18.6425 121.494 19.6163C123.253 20.5631 124.632 21.9156 125.633 23.6739C126.661 25.4322 127.175 27.4611 127.175 29.7604C127.175 32.0597 126.648 34.0885 125.593 35.8468C124.565 37.6051 123.158 38.9712 121.373 39.945C119.614 40.8918 117.64 41.3652 115.449 41.3652ZM115.449 36.4149C116.477 36.4149 117.437 36.1714 118.33 35.6845C119.249 35.1705 119.98 34.4131 120.521 33.4122C121.062 32.4114 121.332 31.1941 121.332 29.7604C121.332 27.6234 120.764 25.9868 119.628 24.8506C118.519 23.6875 117.153 23.1059 115.53 23.1059C113.907 23.1059 112.541 23.6875 111.432 24.8506C110.35 25.9868 109.809 27.6234 109.809 29.7604C109.809 31.8974 110.336 33.5475 111.391 34.7107C112.473 35.8468 113.826 36.4149 115.449 36.4149ZM139.944 41.3652C138.105 41.3652 136.455 41.0406 134.994 40.3914C133.533 39.7151 132.37 38.8089 131.504 37.6727C130.666 36.5366 130.206 35.2787 130.125 33.8992H135.846C135.954 34.7648 136.374 35.4816 137.104 36.0497C137.861 36.6178 138.795 36.9018 139.904 36.9018C140.986 36.9018 141.824 36.6854 142.419 36.2526C143.042 35.8198 143.353 35.2652 143.353 34.5889C143.353 33.8586 142.974 33.3176 142.217 32.9659C141.486 32.5872 140.309 32.1814 138.686 31.7486C137.009 31.3428 135.63 30.9236 134.548 30.4907C133.493 30.0579 132.573 29.3952 131.788 28.5025C131.031 27.6098 130.652 26.4061 130.652 24.8912C130.652 23.6469 131.004 22.5107 131.707 21.4828C132.438 20.4549 133.466 19.6434 134.791 19.0482C136.144 18.4531 137.726 18.1556 139.539 18.1556C142.217 18.1556 144.354 18.8318 145.95 20.1844C147.546 21.5099 148.425 23.3087 148.587 25.581H143.15C143.069 24.6883 142.69 23.985 142.014 23.4711C141.364 22.93 140.485 22.6595 139.376 22.6595C138.348 22.6595 137.55 22.8489 136.982 23.2276C136.441 23.6063 136.171 24.1338 136.171 24.8101C136.171 25.5675 136.549 26.1491 137.307 26.5548C138.064 26.9336 139.241 27.3258 140.837 27.7316C142.46 28.1373 143.799 28.5566 144.854 28.9894C145.909 29.4222 146.815 30.0985 147.573 31.0182C148.357 31.9109 148.763 33.1012 148.79 34.5889C148.79 35.8874 148.425 37.0506 147.694 38.0785C146.991 39.1064 145.963 39.918 144.611 40.5131C143.285 41.0812 141.73 41.3652 139.944 41.3652ZM159.134 21.7668C159.864 20.7389 160.865 19.8868 162.136 19.2105C163.435 18.5072 164.909 18.1556 166.559 18.1556C168.48 18.1556 170.211 18.6289 171.753 19.5757C173.322 20.5225 174.553 21.875 175.445 23.6334C176.365 25.3646 176.825 27.3799 176.825 29.6792C176.825 31.9785 176.365 34.0209 175.445 35.8062C174.553 37.5645 173.322 38.9306 171.753 39.9044C170.211 40.8783 168.48 41.3652 166.559 41.3652C164.909 41.3652 163.448 41.0271 162.177 40.3508C160.933 39.6745 159.918 38.8224 159.134 37.7945V51.7121H153.453V18.5207H159.134V21.7668ZM171.023 29.6792C171.023 28.3267 170.739 27.1635 170.17 26.1897C169.629 25.1888 168.899 24.4314 167.979 23.9174C167.087 23.4034 166.113 23.1464 165.058 23.1464C164.03 23.1464 163.056 23.4169 162.136 23.958C161.244 24.4719 160.513 25.2294 159.945 26.2302C159.404 27.2311 159.134 28.4078 159.134 29.7604C159.134 31.1129 159.404 32.2896 159.945 33.2905C160.513 34.2914 161.244 35.0623 162.136 35.6034C163.056 36.1173 164.03 36.3743 165.058 36.3743C166.113 36.3743 167.087 36.1038 167.979 35.5628C168.899 35.0218 169.629 34.2508 170.17 33.2499C170.739 32.2491 171.023 31.0588 171.023 29.6792ZM201.85 29.2735C201.85 30.085 201.796 30.8154 201.687 31.4646H185.254C185.389 33.0876 185.957 34.359 186.958 35.2787C187.959 36.1985 189.19 36.6583 190.651 36.6583C192.761 36.6583 194.262 35.7521 195.155 33.9397H201.282C200.632 36.1038 199.388 37.8892 197.549 39.2958C195.709 40.6754 193.45 41.3652 190.772 41.3652C188.608 41.3652 186.661 40.8918 184.929 39.945C183.225 38.9712 181.886 37.6051 180.912 35.8468C179.966 34.0885 179.492 32.0597 179.492 29.7604C179.492 27.434 179.966 25.3917 180.912 23.6334C181.859 21.875 183.185 20.5225 184.889 19.5757C186.593 18.6289 188.554 18.1556 190.772 18.1556C192.909 18.1556 194.817 18.6154 196.494 19.5352C198.198 20.4549 199.51 21.7668 200.43 23.4711C201.376 25.1482 201.85 27.0823 201.85 29.2735ZM195.966 27.6504C195.939 26.1897 195.412 25.0265 194.384 24.1608C193.356 23.2682 192.098 22.8218 190.61 22.8218C189.203 22.8218 188.013 23.2546 187.039 24.1203C186.093 24.9588 185.511 26.1356 185.295 27.6504H195.966ZM211.677 22.0103C212.407 20.8201 213.354 19.8868 214.517 19.2105C215.707 18.5343 217.06 18.1961 218.575 18.1961V24.1608H217.073C215.288 24.1608 213.936 24.5801 213.016 25.4187C212.123 26.2573 211.677 27.718 211.677 29.8009V41H205.996V18.5207H211.677V22.0103ZM225.282 15.8427C224.281 15.8427 223.442 15.5316 222.766 14.9095C222.117 14.2602 221.792 13.4622 221.792 12.5155C221.792 11.5687 222.117 10.7842 222.766 10.162C223.442 9.51281 224.281 9.1882 225.282 9.1882C226.283 9.1882 227.108 9.51281 227.757 10.162C228.433 10.7842 228.771 11.5687 228.771 12.5155C228.771 13.4622 228.433 14.2602 227.757 14.9095C227.108 15.5316 226.283 15.8427 225.282 15.8427ZM228.082 18.5207V41H222.401V18.5207H228.082ZM240.308 23.187V34.0615C240.308 34.8189 240.484 35.3734 240.836 35.7251C241.214 36.0497 241.837 36.212 242.702 36.212H245.34V41H241.769C236.981 41 234.587 38.6736 234.587 34.0209V23.187H231.909V18.5207H234.587V12.9618H240.308V18.5207H245.34V23.187H240.308ZM270.931 18.5207L257.013 51.631H250.967L255.836 40.4319L246.829 18.5207H253.199L259.001 34.2238L264.885 18.5207H270.931Z" fill="white"/>
<path d="M290.061 26.4737C291.657 26.7713 292.969 27.5693 293.997 28.8677C295.025 30.1661 295.539 31.6539 295.539 33.3311C295.539 34.8459 295.16 36.1849 294.403 37.3481C293.673 38.4843 292.604 39.3769 291.197 40.0262C289.791 40.6754 288.127 41 286.207 41H273.993V12.6778H285.679C287.6 12.6778 289.25 12.9888 290.629 13.611C292.036 14.2332 293.091 15.0988 293.794 16.2079C294.525 17.317 294.89 18.5748 294.89 19.9815C294.89 21.6316 294.444 23.0112 293.551 24.1203C292.685 25.2294 291.522 26.0138 290.061 26.4737ZM279.674 24.3637H284.868C286.22 24.3637 287.262 24.0662 287.992 23.4711C288.722 22.8489 289.087 21.9697 289.087 20.8336C289.087 19.6975 288.722 18.8183 287.992 18.1961C287.262 17.574 286.22 17.2629 284.868 17.2629H279.674V24.3637ZM285.395 36.3743C286.775 36.3743 287.843 36.0497 288.601 35.4005C289.385 34.7513 289.777 33.8315 289.777 32.6413C289.777 31.424 289.371 30.4772 288.56 29.8009C287.748 29.0976 286.653 28.746 285.273 28.746H279.674V36.3743H285.395ZM298.606 29.6792C298.606 27.4069 299.052 25.3917 299.945 23.6334C300.865 21.875 302.095 20.5225 303.637 19.5757C305.206 18.6289 306.951 18.1556 308.872 18.1556C310.549 18.1556 312.009 18.4937 313.254 19.17C314.525 19.8462 315.54 20.6983 316.297 21.7263V18.5207H322.018V41H316.297V37.7133C315.567 38.7683 314.552 39.6475 313.254 40.3508C311.982 41.0271 310.508 41.3652 308.831 41.3652C306.937 41.3652 305.206 40.8783 303.637 39.9044C302.095 38.9306 300.865 37.5645 299.945 35.8062C299.052 34.0209 298.606 31.9785 298.606 29.6792ZM316.297 29.7604C316.297 28.3808 316.027 27.2041 315.486 26.2302C314.944 25.2294 314.214 24.4719 313.294 23.958C312.375 23.4169 311.387 23.1464 310.332 23.1464C309.277 23.1464 308.304 23.4034 307.411 23.9174C306.518 24.4314 305.788 25.1888 305.22 26.1897C304.679 27.1635 304.408 28.3267 304.408 29.6792C304.408 31.0318 304.679 32.222 305.22 33.2499C305.788 34.2508 306.518 35.0218 307.411 35.5628C308.331 36.1038 309.304 36.3743 310.332 36.3743C311.387 36.3743 312.375 36.1173 313.294 35.6034C314.214 35.0623 314.944 34.3049 315.486 33.3311C316.027 32.3302 316.297 31.14 316.297 29.7604ZM340.023 18.1961C342.701 18.1961 344.865 19.0482 346.516 20.7524C348.166 22.4296 348.991 24.783 348.991 27.8127V41H343.31V28.5837C343.31 26.7983 342.864 25.4322 341.971 24.4855C341.078 23.5116 339.861 23.0247 338.319 23.0247C336.75 23.0247 335.506 23.5116 334.586 24.4855C333.693 25.4322 333.247 26.7983 333.247 28.5837V41H327.566V18.5207H333.247V21.3205C334.005 20.3467 334.965 19.5893 336.128 19.0482C337.318 18.4802 338.617 18.1961 340.023 18.1961ZM367.702 41L360.073 31.424V41H354.393V10.9736H360.073V28.0562L367.621 18.5207H375.005L365.105 29.8009L375.087 41H367.702Z" fill="#5CE1E6"/>
<path d="M26.4692 0C21.234 -5.30667e-08 16.1165 1.3196 11.7637 3.79193C7.41085 6.26426 4.01823 9.77828 2.01485 13.8896C0.0114576 18.001 -0.512721 22.525 0.508596 26.8895C1.52991 31.2541 4.05085 35.2632 7.75263 38.4099C11.4544 41.5566 16.1708 43.6995 21.3053 44.5677C26.4398 45.4358 31.7618 44.9903 36.5984 43.2873C41.4351 41.5843 45.569 38.7004 48.4774 35.0003C51.3859 31.3002 52.9383 26.9501 52.9383 22.5L39.7037 22.5C39.7037 24.725 38.9275 26.9001 37.4733 28.7502C36.0191 30.6002 33.9521 32.0422 31.5338 32.8936C29.1155 33.7451 26.4545 33.9679 23.8872 33.5338C21.32 33.0997 18.9618 32.0283 17.1109 30.4549C15.26 28.8816 13.9995 26.8771 13.4889 24.6948C12.9782 22.5125 13.2403 20.2505 14.242 18.1948C15.2437 16.1391 16.94 14.3821 19.1164 13.146C21.2928 11.9098 23.8516 11.25 26.4692 11.25L26.4692 0Z" fill="#00A0FF"/>
<path d="M27.0302 0C23.4805 -3.19585e-08 19.9656 0.527862 16.6862 1.55345C13.4067 2.57903 10.4269 4.08225 7.91696 5.97729C5.40698 7.87232 3.41595 10.1221 2.05755 12.598C0.699156 15.074 -5.35983e-07 17.7278 0 20.4077L13.5151 20.4077C13.5151 19.0677 13.8647 17.7409 14.5439 16.5029C15.2231 15.2649 16.2186 14.14 17.4736 13.1925C18.7286 12.245 20.2185 11.4934 21.8582 10.9806C23.4979 10.4678 25.2554 10.2039 27.0302 10.2039L27.0302 0Z" fill="#00A0FF"/>
<path d="M35.2594 22.4852C35.2594 26.0073 31.4775 28.8626 26.8124 28.8626C22.1473 28.8626 18.3655 26.0073 18.3655 22.4852C18.3655 18.963 22.1473 16.1078 26.8124 16.1078C31.4775 16.1078 35.2594 18.963 35.2594 22.4852Z" fill="#00A0FF"/>
<path d="M35.2983 22.3669C35.2983 21.5294 35.0798 20.7001 34.6553 19.9264C34.2308 19.1526 33.6086 18.4496 32.8242 17.8574C32.0399 17.2652 31.1087 16.7954 30.0838 16.4749C29.059 16.1544 27.9606 15.9895 26.8513 15.9895C25.7421 15.9895 24.6437 16.1544 23.6188 16.4749C22.594 16.7954 21.6628 17.2652 20.8785 17.8574C20.0941 18.4496 19.4719 19.1526 19.0474 19.9264C18.6229 20.7001 18.4044 21.5294 18.4044 22.3669L26.8513 22.3669H35.2983Z" fill="#00A0FF"/>
</svg>
