<svg width="420" height="52" viewBox="0 0 420 52" fill="none" xmlns="http://www.w3.org/2000/svg">
<path d="M89.2655 21.4422C89.2655 22.9571 88.9003 24.3773 88.17 25.7027C87.4666 27.0282 86.344 28.0967 84.8021 28.9083C83.2873 29.7198 81.3667 30.1256 79.0403 30.1256H74.2929V41H68.6122V12.6778H79.0403C81.2314 12.6778 83.0979 13.0565 84.6398 13.8139C86.1817 14.5713 87.3314 15.6128 88.0888 16.9383C88.8733 18.2638 89.2655 19.7651 89.2655 21.4422ZM78.7968 25.5404C80.3658 25.5404 81.529 25.1888 82.2864 24.4855C83.0438 23.7551 83.4225 22.7407 83.4225 21.4422C83.4225 18.683 81.8806 17.3035 78.7968 17.3035H74.2929V25.5404H78.7968ZM98.9794 22.0103C99.7098 20.8201 100.657 19.8868 101.82 19.2105C103.01 18.5343 104.363 18.1961 105.877 18.1961V24.1608H104.376C102.591 24.1608 101.238 24.5801 100.318 25.4187C99.4258 26.2573 98.9794 27.718 98.9794 29.8009V41H93.2987V18.5207H98.9794V22.0103ZM119.685 41.3652C117.521 41.3652 115.574 40.8918 113.842 39.945C112.111 38.9712 110.745 37.6051 109.744 35.8468C108.77 34.0885 108.283 32.0597 108.283 29.7604C108.283 27.4611 108.784 25.4322 109.785 23.6739C110.813 21.9156 112.206 20.5631 113.964 19.6163C115.722 18.6425 117.684 18.1556 119.848 18.1556C122.012 18.1556 123.973 18.6425 125.731 19.6163C127.49 20.5631 128.869 21.9156 129.87 23.6739C130.898 25.4322 131.412 27.4611 131.412 29.7604C131.412 32.0597 130.884 34.0885 129.829 35.8468C128.802 37.6051 127.395 38.9712 125.61 39.945C123.851 40.8918 121.876 41.3652 119.685 41.3652ZM119.685 36.4149C120.713 36.4149 121.674 36.1714 122.566 35.6845C123.486 35.1705 124.216 34.4131 124.757 33.4122C125.298 32.4114 125.569 31.1941 125.569 29.7604C125.569 27.6234 125.001 25.9868 123.865 24.8506C122.756 23.6875 121.39 23.1059 119.767 23.1059C118.143 23.1059 116.777 23.6875 115.668 24.8506C114.586 25.9868 114.045 27.6234 114.045 29.7604C114.045 31.8974 114.573 33.5475 115.628 34.7107C116.71 35.8468 118.062 36.4149 119.685 36.4149ZM144.181 41.3652C142.342 41.3652 140.692 41.0406 139.231 40.3914C137.77 39.7151 136.607 38.8089 135.741 37.6727C134.903 36.5366 134.443 35.2787 134.362 33.8992H140.083C140.191 34.7648 140.61 35.4816 141.341 36.0497C142.098 36.6178 143.031 36.9018 144.14 36.9018C145.223 36.9018 146.061 36.6854 146.656 36.2526C147.278 35.8198 147.589 35.2652 147.589 34.5889C147.589 33.8586 147.211 33.3176 146.453 32.9659C145.723 32.5872 144.546 32.1814 142.923 31.7486C141.246 31.3428 139.866 30.9236 138.784 30.4907C137.729 30.0579 136.81 29.3952 136.025 28.5025C135.268 27.6098 134.889 26.4061 134.889 24.8912C134.889 23.6469 135.241 22.5107 135.944 21.4828C136.674 20.4549 137.702 19.6434 139.028 19.0482C140.38 18.4531 141.963 18.1556 143.775 18.1556C146.453 18.1556 148.59 18.8318 150.186 20.1844C151.782 21.5099 152.662 23.3087 152.824 25.581H147.387C147.305 24.6883 146.927 23.985 146.25 23.4711C145.601 22.93 144.722 22.6595 143.613 22.6595C142.585 22.6595 141.787 22.8489 141.219 23.2276C140.678 23.6063 140.407 24.1338 140.407 24.8101C140.407 25.5675 140.786 26.1491 141.544 26.5548C142.301 26.9336 143.478 27.3258 145.074 27.7316C146.697 28.1373 148.036 28.5566 149.091 28.9894C150.146 29.4222 151.052 30.0985 151.809 31.0182C152.594 31.9109 153 33.1012 153.027 34.5889C153.027 35.8874 152.662 37.0506 151.931 38.0785C151.228 39.1064 150.2 39.918 148.847 40.5131C147.522 41.0812 145.966 41.3652 144.181 41.3652ZM163.37 21.7668C164.101 20.7389 165.102 19.8868 166.373 19.2105C167.672 18.5072 169.146 18.1556 170.796 18.1556C172.717 18.1556 174.448 18.6289 175.99 19.5757C177.559 20.5225 178.789 21.875 179.682 23.6334C180.602 25.3646 181.062 27.3799 181.062 29.6792C181.062 31.9785 180.602 34.0209 179.682 35.8062C178.789 37.5645 177.559 38.9306 175.99 39.9044C174.448 40.8783 172.717 41.3652 170.796 41.3652C169.146 41.3652 167.685 41.0271 166.414 40.3508C165.169 39.6745 164.155 38.8224 163.37 37.7945V51.7121H157.69V18.5207H163.37V21.7668ZM175.259 29.6792C175.259 28.3267 174.975 27.1635 174.407 26.1897C173.866 25.1888 173.136 24.4314 172.216 23.9174C171.323 23.4034 170.35 23.1464 169.295 23.1464C168.267 23.1464 167.293 23.4169 166.373 23.958C165.48 24.4719 164.75 25.2294 164.182 26.2302C163.641 27.2311 163.37 28.4078 163.37 29.7604C163.37 31.1129 163.641 32.2896 164.182 33.2905C164.75 34.2914 165.48 35.0623 166.373 35.6034C167.293 36.1173 168.267 36.3743 169.295 36.3743C170.35 36.3743 171.323 36.1038 172.216 35.5628C173.136 35.0218 173.866 34.2508 174.407 33.2499C174.975 32.2491 175.259 31.0588 175.259 29.6792ZM206.087 29.2735C206.087 30.085 206.032 30.8154 205.924 31.4646H189.491C189.626 33.0876 190.194 34.359 191.195 35.2787C192.196 36.1985 193.427 36.6583 194.887 36.6583C196.997 36.6583 198.499 35.7521 199.391 33.9397H205.518C204.869 36.1038 203.625 37.8892 201.785 39.2958C199.946 40.6754 197.687 41.3652 195.009 41.3652C192.845 41.3652 190.897 40.8918 189.166 39.945C187.462 38.9712 186.123 37.6051 185.149 35.8468C184.202 34.0885 183.729 32.0597 183.729 29.7604C183.729 27.434 184.202 25.3917 185.149 23.6334C186.096 21.875 187.421 20.5225 189.126 19.5757C190.83 18.6289 192.791 18.1556 195.009 18.1556C197.146 18.1556 199.053 18.6154 200.73 19.5352C202.435 20.4549 203.747 21.7668 204.666 23.4711C205.613 25.1482 206.087 27.0823 206.087 29.2735ZM200.203 27.6504C200.176 26.1897 199.648 25.0265 198.62 24.1608C197.593 23.2682 196.335 22.8218 194.847 22.8218C193.44 22.8218 192.25 23.2546 191.276 24.1203C190.329 24.9588 189.748 26.1356 189.531 27.6504H200.203ZM215.914 22.0103C216.644 20.8201 217.591 19.8868 218.754 19.2105C219.944 18.5343 221.297 18.1961 222.812 18.1961V24.1608H221.31C219.525 24.1608 218.172 24.5801 217.253 25.4187C216.36 26.2573 215.914 27.718 215.914 29.8009V41H210.233V18.5207H215.914V22.0103ZM229.519 15.8427C228.518 15.8427 227.679 15.5316 227.003 14.9095C226.354 14.2602 226.029 13.4622 226.029 12.5155C226.029 11.5687 226.354 10.7842 227.003 10.162C227.679 9.51281 228.518 9.1882 229.519 9.1882C230.52 9.1882 231.345 9.51281 231.994 10.162C232.67 10.7842 233.008 11.5687 233.008 12.5155C233.008 13.4622 232.67 14.2602 231.994 14.9095C231.345 15.5316 230.52 15.8427 229.519 15.8427ZM232.318 18.5207V41H226.638V18.5207H232.318ZM244.545 23.187V34.0615C244.545 34.8189 244.721 35.3734 245.072 35.7251C245.451 36.0497 246.073 36.212 246.939 36.212H249.576V41H246.006C241.218 41 238.824 38.6736 238.824 34.0209V23.187H236.146V18.5207H238.824V12.9618H244.545V18.5207H249.576V23.187H244.545ZM275.168 18.5207L261.25 51.631H255.204L260.073 40.4319L251.065 18.5207H257.436L263.238 34.2238L269.122 18.5207H275.168Z" fill="white"/>
<path d="M294.298 26.4737C295.894 26.7713 297.206 27.5693 298.234 28.8677C299.262 30.1661 299.776 31.6539 299.776 33.3311C299.776 34.8459 299.397 36.1849 298.64 37.3481C297.909 38.4843 296.841 39.3769 295.434 40.0262C294.028 40.6754 292.364 41 290.443 41H278.23V12.6778H289.916C291.836 12.6778 293.487 12.9888 294.866 13.611C296.273 14.2332 297.328 15.0988 298.031 16.2079C298.761 17.317 299.127 18.5748 299.127 19.9815C299.127 21.6316 298.68 23.0112 297.788 24.1203C296.922 25.2294 295.759 26.0138 294.298 26.4737ZM283.911 24.3637H289.104C290.457 24.3637 291.498 24.0662 292.229 23.4711C292.959 22.8489 293.324 21.9697 293.324 20.8336C293.324 19.6975 292.959 18.8183 292.229 18.1961C291.498 17.574 290.457 17.2629 289.104 17.2629H283.911V24.3637ZM289.632 36.3743C291.011 36.3743 292.08 36.0497 292.837 35.4005C293.622 34.7513 294.014 33.8315 294.014 32.6413C294.014 31.424 293.608 30.4772 292.797 29.8009C291.985 29.0976 290.89 28.746 289.51 28.746H283.911V36.3743H289.632ZM302.843 29.6792C302.843 27.4069 303.289 25.3917 304.182 23.6334C305.101 21.875 306.332 20.5225 307.874 19.5757C309.443 18.6289 311.188 18.1556 313.108 18.1556C314.785 18.1556 316.246 18.4937 317.491 19.17C318.762 19.8462 319.776 20.6983 320.534 21.7263V18.5207H326.255V41H320.534V37.7133C319.803 38.7683 318.789 39.6475 317.491 40.3508C316.219 41.0271 314.745 41.3652 313.068 41.3652C311.174 41.3652 309.443 40.8783 307.874 39.9044C306.332 38.9306 305.101 37.5645 304.182 35.8062C303.289 34.0209 302.843 31.9785 302.843 29.6792ZM320.534 29.7604C320.534 28.3808 320.263 27.2041 319.722 26.2302C319.181 25.2294 318.451 24.4719 317.531 23.958C316.611 23.4169 315.624 23.1464 314.569 23.1464C313.514 23.1464 312.54 23.4034 311.648 23.9174C310.755 24.4314 310.025 25.1888 309.456 26.1897C308.915 27.1635 308.645 28.3267 308.645 29.6792C308.645 31.0318 308.915 32.222 309.456 33.2499C310.025 34.2508 310.755 35.0218 311.648 35.5628C312.567 36.1038 313.541 36.3743 314.569 36.3743C315.624 36.3743 316.611 36.1173 317.531 35.6034C318.451 35.0623 319.181 34.3049 319.722 33.3311C320.263 32.3302 320.534 31.14 320.534 29.7604ZM344.26 18.1961C346.938 18.1961 349.102 19.0482 350.752 20.7524C352.402 22.4296 353.227 24.783 353.227 27.8127V41H347.547V28.5837C347.547 26.7983 347.1 25.4322 346.208 24.4855C345.315 23.5116 344.098 23.0247 342.556 23.0247C340.987 23.0247 339.743 23.5116 338.823 24.4855C337.93 25.4322 337.484 26.7983 337.484 28.5837V41H331.803V18.5207H337.484V21.3205C338.241 20.3467 339.202 19.5893 340.365 19.0482C341.555 18.4802 342.853 18.1961 344.26 18.1961ZM371.939 41L364.31 31.424V41H358.63V10.9736H364.31V28.0562L371.857 18.5207H379.242L369.342 29.8009L379.323 41H371.939Z" fill="#5CE1E6"/>
<path d="M30.5 0C24.4677 -5.54252e-08 18.5708 1.37825 13.5551 3.96046C8.53941 6.54268 4.63015 10.2129 2.32168 14.5069C0.0132025 18.801 -0.5908 23.5261 0.586048 28.0846C1.7629 32.6432 4.66774 36.8305 8.93324 40.117C13.1987 43.4035 18.6333 45.6417 24.5497 46.5485C30.4662 47.4552 36.5987 46.9898 42.1718 45.2112C47.745 43.4325 52.5084 40.4205 55.8598 36.5559C59.2112 32.6914 61 28.1479 61 23.5L45.75 23.5C45.75 25.8239 44.8556 28.0957 43.1799 30.028C41.5042 31.9602 39.1225 33.4663 36.3359 34.3556C33.5493 35.2449 30.4831 35.4776 27.5249 35.0242C24.5667 34.5708 21.8494 33.4518 19.7166 31.8085C17.5839 30.1652 16.1314 28.0716 15.543 25.7923C14.9546 23.513 15.2566 21.1505 16.4108 19.0035C17.5651 16.8564 19.5197 15.0213 22.0276 13.7302C24.5354 12.4391 27.4838 11.75 30.5 11.75L30.5 0Z" fill="#00A0FF"/>
<path d="M30.5 0C26.4947 -3.68009e-08 22.5286 0.607845 18.8282 1.78883C15.1277 2.96982 11.7654 4.70081 8.93324 6.88299C6.10105 9.06517 3.85444 11.6558 2.32167 14.5069C0.788905 17.3581 -6.04786e-07 20.4139 0 23.5L15.25 23.5C15.25 21.957 15.6445 20.429 16.4108 19.0035C17.1772 17.5779 18.3005 16.2826 19.7166 15.1915C21.1327 14.1004 22.8139 13.2349 24.6641 12.6444C26.5143 12.0539 28.4973 11.75 30.5 11.75L30.5 0Z" fill="#00A0FF"/>
<ellipse cx="30.5" cy="23.5" rx="9.53125" ry="7.34375" fill="#00A0FF"/>
<path d="M40.0313 23.5C40.0313 22.5356 39.7847 21.5807 39.3057 20.6897C38.8267 19.7987 38.1247 18.9891 37.2396 18.3072C36.3546 17.6253 35.3038 17.0843 34.1475 16.7153C32.9911 16.3462 31.7517 16.1562 30.5 16.1563C29.2483 16.1563 28.0089 16.3462 26.8525 16.7153C25.6962 17.0843 24.6454 17.6253 23.7604 18.3072C22.8753 18.9891 22.1733 19.7987 21.6943 20.6897C21.2153 21.5807 20.9687 22.5356 20.9688 23.5L30.5 23.5H40.0313Z" fill="#00A0FF"/>
</svg>
