<svg width="33" height="32" viewBox="0 0 33 32" fill="none" xmlns="http://www.w3.org/2000/svg">
<path d="M16.0739 0C12.8948 -3.77363e-08 9.78708 0.938383 7.14373 2.69649C4.50039 4.45459 2.44015 6.95345 1.22356 9.87706C0.00695788 12.8007 -0.31136 16.0177 0.308855 19.1214C0.929071 22.2251 2.45996 25.0761 4.70794 27.3137C6.95592 29.5513 9.82002 31.0752 12.9381 31.6926C16.0561 32.3099 19.288 31.9931 22.2252 30.7821C25.1623 29.5711 27.6727 27.5203 29.4389 24.8891C31.2051 22.2579 32.1479 19.1645 32.1479 16L24.1109 16C24.1109 17.5823 23.6395 19.129 22.7564 20.4446C21.8733 21.7602 20.6181 22.7855 19.1495 23.391C17.681 23.9965 16.065 24.155 14.506 23.8463C12.947 23.5376 11.5149 22.7757 10.3909 21.6569C9.26695 20.538 8.5015 19.1126 8.19139 17.5607C7.88129 16.0089 8.04044 14.4003 8.64874 12.9385C9.25704 11.4767 10.2872 10.2273 11.6088 9.34824C12.9305 8.46919 14.4844 8 16.0739 8L16.0739 0Z" fill="white"/>
<path d="M16.0739 0C13.9631 -2.5056e-08 11.8729 0.413852 9.9227 1.21793C7.97252 2.022 6.20055 3.20055 4.70794 4.68629C3.21534 6.17203 2.03134 7.93586 1.22355 9.87707C0.415764 11.8183 -3.18731e-07 13.8989 0 16L8.03697 16C8.03697 14.9494 8.24485 13.9091 8.64874 12.9385C9.05264 11.9679 9.64464 11.086 10.3909 10.3431C11.1372 9.60028 12.0232 9.011 12.9983 8.60896C13.9734 8.20693 15.0185 8 16.0739 8L16.0739 0Z" fill="#5CE1E6"/>
<ellipse cx="16.0739" cy="16" rx="5.0231" ry="5" fill="#5CE1E6"/>
<path d="M21.097 16C21.097 15.3434 20.9671 14.6932 20.7147 14.0866C20.4623 13.48 20.0923 12.9288 19.6258 12.4645C19.1594 12.0002 18.6056 11.6319 17.9962 11.3806C17.3868 11.1293 16.7336 11 16.0739 11C15.4143 11 14.7611 11.1293 14.1517 11.3806C13.5423 11.6319 12.9885 12.0002 12.5221 12.4645C12.0556 12.9288 11.6856 13.48 11.4332 14.0866C11.1808 14.6932 11.0508 15.3434 11.0508 16L16.0739 16H21.097Z" fill="white"/>
</svg>
