<svg width="204" height="50" viewBox="0 0 204 50" fill="none" xmlns="http://www.w3.org/2000/svg">
<path d="M52.4655 29.227C52.518 29.9782 52.3862 30.695 52.07 31.3776C51.7672 32.0592 51.2476 32.628 50.5111 33.0838C49.7881 33.5388 48.8499 33.8066 47.6963 33.8872L45.3423 34.0518L45.7193 39.444L42.9025 39.6409L41.9205 25.5972L47.0913 25.2356C48.1778 25.1597 49.1165 25.2827 49.9073 25.6048C50.6981 25.927 51.3043 26.4035 51.7258 27.0345C52.1608 27.6645 52.4073 28.3954 52.4655 29.227ZM47.4166 31.6221C48.1946 31.5677 48.7592 31.353 49.1104 30.978C49.4606 30.5896 49.6132 30.0734 49.5682 29.4296C49.4725 28.0614 48.6601 27.4308 47.131 27.5378L44.8977 27.6939L45.1833 31.7783L47.4166 31.6221ZM57.3018 29.1719C57.6227 28.5564 58.0598 28.0608 58.6132 27.6851C59.1799 27.3085 59.8388 27.0939 60.59 27.0414L60.7968 29.9991L60.0524 30.0511C59.1671 30.113 58.511 30.3678 58.084 30.8155C57.6704 31.2623 57.4998 32.0021 57.572 33.0349L57.9603 38.588L55.1435 38.785L54.3641 27.6385L57.1808 27.4416L57.3018 29.1719ZM68.2401 38.0511C67.167 38.1262 66.1849 37.959 65.2936 37.5495C64.4014 37.1267 63.6766 36.4967 63.1194 35.6595C62.5755 34.8214 62.2637 33.8323 62.184 32.6922C62.1043 31.552 62.2821 30.5287 62.7174 29.6221C63.1661 28.7146 63.81 27.9957 64.6491 27.4652C65.4872 26.9214 66.4427 26.6119 67.5158 26.5369C68.5889 26.4619 69.5782 26.6353 70.4839 27.0572C71.3885 27.4657 72.1195 28.0885 72.6768 28.9257C73.2475 29.7619 73.5726 30.7501 73.6524 31.8902C73.7321 33.0304 73.5409 34.0547 73.0787 34.9631C72.63 35.8706 71.9799 36.5967 71.1284 37.1415C70.2893 37.672 69.3266 37.9752 68.2401 38.0511ZM68.0684 35.5965C68.5782 35.5609 69.0459 35.4068 69.4716 35.1345C69.9099 34.8477 70.2458 34.4468 70.4793 33.9318C70.7129 33.4167 70.8048 32.8037 70.7551 32.0928C70.681 31.0332 70.3426 30.2414 69.7398 29.7174C69.1496 29.1791 68.452 28.9381 67.6472 28.9943C66.8424 29.0506 66.1852 29.3864 65.6756 30.0016C65.1785 30.6025 64.9669 31.4327 65.041 32.4924C65.1151 33.552 65.4339 34.352 65.9974 34.8922C66.5733 35.418 67.2636 35.6528 68.0684 35.5965ZM80.3864 37.2018C79.4743 37.2656 78.6448 37.1618 77.898 36.8906C77.1502 36.6059 76.5421 36.1969 76.0734 35.6635C75.6182 35.1292 75.3466 34.5215 75.2585 33.8402L78.0954 33.6418C78.1791 34.0673 78.4119 34.4082 78.7937 34.6646C79.189 34.92 79.6616 35.0285 80.2115 34.99C80.7481 34.9525 81.1564 34.8161 81.4365 34.5808C81.73 34.3447 81.865 34.0589 81.8415 33.7236C81.8162 33.3614 81.6097 33.1063 81.2219 32.9582C80.8466 32.7957 80.2491 32.6353 79.4293 32.477C78.5836 32.3339 77.8849 32.1739 77.3334 31.9968C76.7953 31.8187 76.3162 31.522 75.8963 31.1066C75.4898 30.6902 75.2603 30.1064 75.2077 29.3553C75.1646 28.7383 75.2996 28.1627 75.6127 27.6286C75.9392 27.0936 76.4208 26.6555 77.0574 26.3145C77.7074 25.9725 78.4818 25.7701 79.3805 25.7072C80.7084 25.6144 81.7915 25.8756 82.6297 26.4909C83.4671 27.0929 83.9654 27.9544 84.1247 29.0755L81.4286 29.264C81.3574 28.8242 81.1452 28.4885 80.7921 28.2571C80.4514 28.0114 80.0061 27.9077 79.4561 27.9462C78.9464 27.9818 78.5573 28.1034 78.2888 28.3109C78.0336 28.5174 77.9178 28.7884 77.9412 29.1237C77.9675 29.4993 78.1754 29.7745 78.5651 29.9495C78.9538 30.111 79.5509 30.2647 80.3563 30.4105C81.1752 30.5555 81.8537 30.7169 82.3918 30.895C82.9299 31.073 83.4027 31.3769 83.8102 31.8067C84.2301 32.2221 84.4726 32.7983 84.5376 33.535C84.5826 34.1789 84.4419 34.7683 84.1154 35.3033C83.8023 35.8374 83.3207 36.2755 82.6707 36.6175C82.0331 36.9451 81.2717 37.1399 80.3864 37.2018ZM89.222 26.8185C89.5485 26.2835 90.0153 25.8262 90.6223 25.4468C91.2417 25.053 91.9606 24.8276 92.7788 24.7703C93.7311 24.7037 94.606 24.8785 95.4034 25.2945C96.2142 25.7095 96.8714 26.3375 97.375 27.1784C97.891 28.005 98.189 28.9883 98.2687 30.1285C98.3484 31.2686 98.1912 32.2972 97.797 33.2144C97.4154 34.1172 96.8524 34.8373 96.1082 35.3745C95.3774 35.9109 94.5359 36.2124 93.5835 36.279C92.7653 36.3362 92.0293 36.2192 91.3754 35.9279C90.7349 35.6357 90.2024 35.2484 89.7778 34.7659L90.2603 41.667L87.4435 41.864L86.2927 25.4059L89.1095 25.2089L89.222 26.8185ZM95.3915 30.3296C95.3446 29.659 95.1635 29.0921 94.848 28.6289C94.545 28.1513 94.1566 27.8011 93.6827 27.5781C93.2223 27.3542 92.7305 27.2606 92.2074 27.2972C91.6977 27.3328 91.2242 27.5007 90.7869 27.8008C90.3621 28.0867 90.0262 28.4876 89.7792 29.0035C89.5456 29.5186 89.4523 30.1114 89.4992 30.7821C89.5461 31.4528 89.721 32.0269 90.024 32.5044C90.3404 32.981 90.7293 33.338 91.1907 33.5753C91.6645 33.7982 92.1563 33.8919 92.666 33.8563C93.1892 33.8197 93.6627 33.6518 94.0865 33.3526C94.5238 33.0524 94.8593 32.6448 95.0928 32.1297C95.3398 31.6138 95.4394 31.0137 95.3915 30.3296ZM110.663 29.0596C110.691 29.462 110.69 29.826 110.659 30.1517L102.51 30.7215C102.634 31.5216 102.959 32.1323 103.487 32.5537C104.016 32.975 104.642 33.1603 105.366 33.1097C106.412 33.0365 107.125 32.5351 107.505 31.6055L110.543 31.393C110.297 32.4886 109.741 33.417 108.878 34.1783C108.014 34.9262 106.918 35.3465 105.59 35.4394C104.517 35.5144 103.535 35.3472 102.643 34.9378C101.764 34.514 101.053 33.8831 100.509 33.045C99.9789 32.2059 99.6738 31.2163 99.5941 30.0762C99.5134 28.9227 99.6773 27.8936 100.086 26.9889C100.494 26.0842 101.105 25.3675 101.917 24.839C102.729 24.3104 103.685 24.0077 104.785 23.9308C105.845 23.8567 106.806 24.0186 107.67 24.4165C108.547 24.8134 109.243 25.4185 109.758 26.2316C110.286 27.0304 110.587 27.9731 110.663 29.0596ZM107.69 28.4588C107.626 27.7354 107.324 27.1769 106.784 26.7833C106.243 26.3763 105.604 26.1986 104.866 26.2502C104.169 26.299 103.594 26.5549 103.141 27.0179C102.7 27.4665 102.453 28.0701 102.398 28.8288L107.69 28.4588ZM115.284 25.1173C115.605 24.5018 116.042 24.0063 116.596 23.6306C117.162 23.254 117.821 23.0394 118.572 22.9869L118.779 25.9445L118.035 25.9966C117.149 26.0585 116.493 26.3133 116.066 26.761C115.653 27.2078 115.482 27.9476 115.554 28.9804L115.943 34.5335L113.126 34.7305L112.346 23.584L115.163 23.387L115.284 25.1173ZM121.817 21.5874C121.32 21.6221 120.894 21.4969 120.537 21.2119C120.192 20.9124 120.004 20.528 119.971 20.0585C119.938 19.5891 120.072 19.1888 120.372 18.8578C120.685 18.5124 121.09 18.3224 121.586 18.2877C122.082 18.253 122.502 18.3854 122.847 18.6848C123.204 18.9698 123.399 19.3471 123.431 19.8165C123.464 20.286 123.324 20.6934 123.011 21.0388C122.711 21.3698 122.313 21.5527 121.817 21.5874ZM123.298 22.8182L124.077 33.9647L121.26 34.1616L120.481 23.0152L123.298 22.8182ZM129.522 24.7081L129.899 30.1002C129.925 30.4758 130.032 30.7447 130.218 30.9069C130.417 31.0547 130.731 31.1136 131.161 31.0836L132.469 30.9921L132.635 33.3663L130.864 33.4901C128.49 33.6561 127.222 32.5856 127.061 30.2785L126.685 24.9065L125.357 24.9993L125.195 22.6855L126.523 22.5927L126.331 19.8362L129.167 19.6379L129.36 22.3943L131.855 22.2198L132.017 24.5336L129.522 24.7081ZM144.545 21.3325L138.792 38.2329L135.794 38.4426L137.82 32.7206L132.593 22.1682L135.752 21.9473L139.174 29.5325L141.547 21.5421L144.545 21.3325Z" fill="white"/>
<path d="M154.306 24.6127C155.108 24.7049 155.786 25.0551 156.341 25.6633C156.896 26.2715 157.202 26.9914 157.26 27.823C157.313 28.5742 157.171 29.2512 156.836 29.8543C156.513 30.443 156.015 30.9226 155.34 31.2933C154.665 31.664 153.851 31.8827 152.899 31.9493L146.843 32.3728L145.86 18.329L151.655 17.9238C152.607 17.8572 153.436 17.9543 154.142 18.215C154.861 18.4747 155.414 18.8673 155.801 19.3929C156.202 19.9175 156.427 20.5286 156.475 21.2261C156.533 22.0443 156.359 22.7438 155.955 23.3247C155.564 23.9047 155.015 24.334 154.306 24.6127ZM149.082 23.9266L151.658 23.7465C152.328 23.6996 152.835 23.516 153.176 23.1956C153.517 22.8617 153.667 22.4131 153.628 21.8498C153.588 21.2864 153.377 20.8631 152.993 20.58C152.609 20.2968 152.082 20.1786 151.412 20.2255L148.836 20.4056L149.082 23.9266ZM152.336 29.6837C153.02 29.6359 153.538 29.4379 153.892 29.0897C154.258 28.7406 154.421 28.2709 154.379 27.6808C154.337 27.0772 154.103 26.6218 153.677 26.3146C153.25 25.994 152.695 25.8576 152.011 25.9054L149.234 26.0996L149.499 29.8821L152.336 29.6837ZM158.654 25.9059C158.576 24.7792 158.727 23.7644 159.109 22.8616C159.504 21.9578 160.067 21.2445 160.799 20.7216C161.544 20.1977 162.393 19.9025 163.345 19.8359C164.177 19.7777 164.913 19.8947 165.553 20.1869C166.207 20.4782 166.74 20.8655 167.151 21.349L167.04 19.7595L169.877 19.5611L170.656 30.7076L167.819 30.9059L167.705 29.2762C167.38 29.8247 166.907 30.2958 166.288 30.6895C165.681 31.0689 164.961 31.2877 164.13 31.3459C163.191 31.4115 162.315 31.2301 161.504 30.8017C160.705 30.3722 160.048 29.7375 159.531 28.8976C159.026 28.0432 158.734 27.046 158.654 25.9059ZM167.429 25.3327C167.382 24.6486 167.207 24.0745 166.905 23.6104C166.602 23.1329 166.213 22.7826 165.739 22.5597C165.265 22.3233 164.766 22.2234 164.242 22.26C163.719 22.2965 163.245 22.4577 162.821 22.7435C162.396 23.0294 162.06 23.4302 161.813 23.9462C161.578 24.4479 161.485 25.034 161.531 25.7047C161.578 26.3754 161.754 26.9562 162.058 27.4471C162.374 27.9237 162.763 28.2807 163.224 28.518C163.699 28.7543 164.191 28.8547 164.701 28.8191C165.224 28.7825 165.705 28.6208 166.143 28.3341C166.58 28.0339 166.916 27.633 167.151 27.1314C167.384 26.6163 167.477 26.0168 167.429 25.3327ZM178.793 18.7758C180.121 18.683 181.224 19.0305 182.101 19.8183C182.977 20.5927 183.468 21.731 183.573 23.2333L184.03 29.7723L181.214 29.9693L180.783 23.8126C180.721 22.9273 180.453 22.2654 179.977 21.8269C179.501 21.375 178.88 21.1757 178.116 21.2292C177.338 21.2836 176.738 21.5682 176.315 22.083C175.905 22.5834 175.731 23.2762 175.793 24.1615L176.224 30.3182L173.407 30.5152L172.628 19.3687L175.444 19.1718L175.542 20.56C175.883 20.0509 176.333 19.642 176.891 19.3334C177.462 19.0105 178.096 18.8246 178.793 18.7758ZM193.308 29.1235L189.194 24.6397L189.526 29.388L186.709 29.585L185.668 14.6963L188.485 14.4993L189.077 22.9698L192.489 17.9799L196.151 17.7238L191.632 23.6605L196.97 28.8675L193.308 29.1235Z" fill="#5CE1E6"/>
<path d="M18.1777 12.9666C14.6405 13.2139 11.2561 14.5046 8.45246 16.6754C5.6488 18.8462 3.55183 21.7997 2.42672 25.1623C1.30161 28.5249 1.19889 32.1456 2.13156 35.5666C3.06422 38.9876 4.99038 42.0552 7.66646 44.3814C10.3425 46.7077 13.6483 48.1882 17.1658 48.6357C20.6833 49.0832 24.2545 48.4776 27.4278 46.8954C30.6011 45.3133 33.234 42.8257 34.9935 39.7472C36.753 36.6687 37.5601 33.1376 37.3127 29.6004L28.3705 30.2257C28.4942 31.9943 28.0907 33.7598 27.2109 35.2991C26.3311 36.8383 25.0147 38.0821 23.4281 38.8732C21.8414 39.6643 20.0558 39.9671 18.2971 39.7433C16.5383 39.5196 14.8854 38.7793 13.5474 37.6162C12.2094 36.4531 11.2463 34.9193 10.7799 33.2088C10.3136 31.4983 10.365 29.6879 10.9275 28.0066C11.4901 26.3253 12.5386 24.8486 13.9404 23.7632C15.3422 22.6778 17.0344 22.0324 18.803 21.9088L18.1777 12.9666Z" fill="white"/>
<path d="M18.1777 12.9666C15.8291 13.1308 13.5359 13.756 11.4289 14.8065C9.32188 15.857 7.44244 17.3122 5.89785 19.0891C4.35325 20.8659 3.17376 22.9296 2.42672 25.1623C1.67967 27.395 1.3797 29.753 1.54393 32.1016L10.4861 31.4763C10.404 30.302 10.554 29.123 10.9275 28.0066C11.301 26.8903 11.8908 25.8585 12.6631 24.97C13.4354 24.0816 14.3751 23.354 15.4286 22.8287C16.4821 22.3035 17.6287 21.9909 18.803 21.9088L18.1777 12.9666Z" fill="#5CE1E6"/>
<circle cx="19.4281" cy="30.8511" r="5.60252" transform="rotate(-4 19.4281 30.8511)" fill="#5CE1E6"/>
<path d="M25.0169 30.4603C24.9656 29.7264 24.7702 29.0097 24.4419 28.3513C24.1137 27.6929 23.6589 27.1055 23.1036 26.6229C22.5484 26.1402 21.9035 25.7716 21.2058 25.5381C20.508 25.3047 19.7712 25.2109 19.0372 25.2623C18.3033 25.3136 17.5867 25.509 16.9282 25.8372C16.2698 26.1655 15.6825 26.6203 15.1998 27.1756C14.7171 27.7308 14.3485 28.3757 14.115 29.0734C13.8816 29.7711 13.7879 30.508 13.8392 31.242L19.4281 30.8511L25.0169 30.4603Z" fill="white"/>
</svg>
